<svg id="visual" viewBox="0 0 1920 80" width="1920" height="80" xmlns="http://www.w3.org/2000/svg" xmlns:xlink="http://www.w3.org/1999/xlink" version="1.1"><rect x="0" y="0" width="1920" height="80" fill="#f8ebd8"></rect><path d="M0 63L64 65.2C128 67.3 256 71.7 384 70C512 68.3 640 60.7 768 56C896 51.3 1024 49.7 1152 52C1280 54.3 1408 60.7 1536 65.2C1664 69.7 1792 72.3 1856 73.7L1920 75L1920 0L1856 0C1792 0 1664 0 1536 0C1408 0 1280 0 1152 0C1024 0 896 0 768 0C640 0 512 0 384 0C256 0 128 0 64 0L0 0Z" fill="#de9d7b"></path><path d="M0 30L64 25.8C128 21.7 256 13.3 384 9.2C512 5 640 5 768 12.8C896 20.7 1024 36.3 1152 44C1280 51.7 1408 51.3 1536 43C1664 34.7 1792 18.3 1856 10.2L1920 2L1920 0L1856 0C1792 0 1664 0 1536 0C1408 0 1280 0 1152 0C1024 0 896 0 768 0C640 0 512 0 384 0C256 0 128 0 64 0L0 0Z" fill="#0c1c6d"></path></svg>