<svg id="visual" viewBox="0 0 1920 80" width="1920" height="80" xmlns="http://www.w3.org/2000/svg" xmlns:xlink="http://www.w3.org/1999/xlink" version="1.1"><rect x="0" y="0" width="1920" height="80" fill="#f8ebd8"></rect><path d="M0 7L80 10.5C160 14 320 21 480 25.8C640 30.7 800 33.3 960 28.7C1120 24 1280 12 1440 14C1600 16 1760 32 1840 40L1920 48L1920 81L1840 81C1760 81 1600 81 1440 81C1280 81 1120 81 960 81C800 81 640 81 480 81C320 81 160 81 80 81L0 81Z" fill="#de9d7b"></path><path d="M0 43L80 40.8C160 38.7 320 34.3 480 35.3C640 36.3 800 42.7 960 50.3C1120 58 1280 67 1440 65.2C1600 63.3 1760 50.7 1840 44.3L1920 38L1920 81L1840 81C1760 81 1600 81 1440 81C1280 81 1120 81 960 81C800 81 640 81 480 81C320 81 160 81 80 81L0 81Z" fill="#0c1c6d"></path></svg>