<svg width="1259" height="1075" viewBox="0 0 1259 1075" fill="none" xmlns="http://www.w3.org/2000/svg">
<ellipse cx="625" cy="531.992" rx="388.5" ry="370.5" fill="#F8EBD8"/>
<path d="M516.5 358.992C489 358.992 437.992 434.992 376.999 432.492C321.541 430.219 409.008 266.068 409.008 241.492C409.008 230.683 549.651 198.351 611 186.992C689.14 172.523 685.57 273.161 653.5 278.992C609.5 286.992 544 358.992 516.5 358.992Z" fill="#DE9D7B"/>
<path d="M774.999 305.992C819.5 303.748 817.507 356.992 878.5 354.492C933.958 352.219 868.5 226.569 868.5 201.992C868.5 191.183 692.754 164.273 631.406 152.913C553.266 138.444 582.825 242.064 608.999 261.492C640.092 284.571 709.5 309.294 774.999 305.992Z" fill="#DE9D7B"/>
<path d="M1047.46 490.951C1254.29 480.523 1129.64 417.975 911 377.492C832.86 363.023 855.285 427.023 881.459 446.451C912.552 469.53 981.96 494.253 1047.46 490.951Z" fill="#DE9D7B"/>
<path d="M1010 630.492C1216.83 620.064 918.098 467.674 897 506.492C884.5 529.492 884.327 567.064 910.5 586.492C941.593 609.571 944.501 633.794 1010 630.492Z" fill="#DE9D7B"/>
<path d="M1051.69 740.807C1258.52 730.379 959.79 577.989 938.693 616.807C926.193 639.807 926.019 677.38 952.193 696.807C983.285 719.886 986.193 744.11 1051.69 740.807Z" fill="#DE9D7B"/>
<path d="M1017.5 751.492C934.5 657.492 899.79 689.989 878.693 728.808C866.193 751.808 866.019 789.38 892.193 808.808C923.286 831.886 1028.3 763.728 1017.5 751.492Z" fill="#DE9D7B"/>
<path d="M495.499 860.992C491.5 799.276 360.597 740.674 339.5 779.492C326.999 802.492 340.018 878.596 366.192 898.024C397.285 921.103 496.555 877.282 495.499 860.992Z" fill="#DE9D7B"/>
<path d="M379.223 832.385C428.271 794.712 404.097 653.342 360.105 657.42C334.039 659.837 278.059 713.012 276.487 745.57C274.619 784.247 366.277 842.329 379.223 832.385Z" fill="#DE9D7B"/>
<path d="M358.113 660.087C416.708 640.301 439.554 498.71 396.607 488.342C371.161 482.199 300.992 514.411 288.975 544.711C274.699 580.705 342.647 665.31 358.113 660.087Z" fill="#DE9D7B"/>
<path fill-rule="evenodd" clip-rule="evenodd" d="M688.003 19.4915C712.503 -7.00837 793.106 -4.29048 826.499 14.4915C842.5 23.4915 943.517 36.5212 962.5 90.9925C975.662 128.761 967.719 190.563 961.062 229.644C976.937 231.801 993.363 238.407 1009.51 250.992C1023.44 261.846 1035.18 283.126 1040.93 305.614C1055.87 302.232 1071.24 300.895 1086.5 302.492C1185.12 312.805 1177.16 408.052 1170.51 454.205C1216.98 472.077 1222.17 527.743 1209.48 575.689C1238.32 602.123 1259 643.474 1259 695.492C1259 821.992 1218.49 847.992 1165 886.492C1129.88 911.766 1058.75 923.362 1011.98 910.814C1009.88 913.12 1007.72 915.189 1005.5 916.992C976.539 940.54 942.998 951.992 890.998 951.992C850.602 951.991 814.5 935.301 799.645 900.112C748.222 920.675 692.853 931.992 637 931.992C602.57 931.992 568.025 928.369 534.26 921.399C547.224 1015.81 507.299 1035.49 450.998 1035.49C413.732 1035.49 369.789 1017 339.229 995.849C306.408 1044.42 251.896 1074.49 196 1074.49C144 1074.49 13.0004 966.491 13 863.492C12.9998 812.084 8.25818 762.483 36.707 735.475C6.02503 710.621 -0.00158459 664.762 3.12476e-07 613.992C0.00237254 545.571 63.5916 442.009 159.002 398.492C171.002 393.018 146.969 348.992 137.502 279.992C125.909 195.492 280.97 76.9918 397.502 76.9915C471.967 76.9915 532.931 80.4006 567.242 105.341C601.011 32.8894 659.959 49.8244 688.003 19.4915ZM607.278 208.569C578.993 222.568 574.592 235.327 567 246.492C524.977 308.29 461.928 360.657 395 383.492C389.82 385.259 396.701 428.266 405 436.992C424.5 457.491 429.004 478.203 429.004 507.992C429.004 534.895 408.577 569.081 376.935 603.378C401.588 622.408 417.489 650.535 417.489 682.992C417.489 716.754 401.222 750.862 375.682 774.309C407.824 792.535 455.177 824.041 489.496 854.415C536.509 870.389 586.848 878.992 637 878.992C691.527 878.992 744.912 866.909 793.478 845.431C793.634 844.13 793.806 842.817 793.999 841.492C798.861 808.126 855.254 750.15 915.716 728.215C913.899 715.544 913.999 702.826 917 690.492C927.201 648.57 943.787 619.038 965.477 597.956C963.861 594.846 962.32 591.696 960.855 588.515C937.297 571.673 912.5 543.492 897 513.492C890.818 501.527 889.176 455.997 901.502 419.431C859.54 402.599 831.361 355.023 852.501 295.992C855.791 286.806 861.446 277.287 868.942 268.404C855.586 265.651 842.065 263.492 829.503 263.492C805.772 263.493 775.503 287.655 688.003 248.492C658.742 235.395 630.32 222.32 607.278 208.569Z" fill="#0C1C6D"/>
<path d="M594 460.492C606.483 460.492 615.959 463.718 622.317 470.152C628.677 476.588 632 486.315 632 499.492C632 512.557 624.727 524.306 615.045 532.807C605.356 541.315 593.344 546.492 584 546.492C571.568 546.492 561.078 541.797 553.693 533.843C546.306 525.885 542 514.637 542 501.492C542 488.432 548.735 478.197 558.615 471.209C568.505 464.214 581.526 460.492 594 460.492Z" fill="#0C1C6D" stroke="#0C1C6D"/>
<path d="M755.5 538.992C743.002 538.992 731.873 536.134 723.88 530.036C715.907 523.953 711 514.607 711 501.492C711 490.696 718.132 479.32 727.711 470.612C737.29 461.904 749.175 455.992 758.5 455.992C770.958 455.992 781.45 459.954 788.824 467.159C796.197 474.362 800.5 484.85 800.5 497.992C800.5 511.108 795.466 521.342 787.348 528.303C779.221 535.273 767.969 538.992 755.5 538.992Z" fill="#0C1C6D" stroke="#0C1C6D"/>
<path d="M673.5 670.992C664.308 670.992 652.268 668.653 644.053 663.421C639.951 660.809 636.844 657.501 635.481 653.445C634.123 649.401 634.473 644.529 637.445 638.719C639.596 634.515 647.379 616.665 651.479 603.136C654.513 593.123 659 574.067 659 560.492C659 551.653 663.05 544.643 667.492 539.831C669.713 537.425 672.024 535.578 673.958 534.335C674.925 533.713 675.792 533.246 676.501 532.936C677.228 532.619 677.734 532.492 678 532.492C682.154 532.492 686.089 534.178 689.221 536.561C692.359 538.949 694.641 541.997 695.525 544.65C703.782 569.419 711.913 587.446 717.962 602.55C724.016 617.665 727.978 629.839 727.978 642.992C727.978 649.519 726.143 654.498 723.033 658.313C719.917 662.136 715.49 664.827 710.243 666.713C699.733 670.491 686.071 670.992 673.5 670.992Z" fill="#0C1C6D" stroke="#0C1C6D"/>
<path d="M545.561 723.085C555.727 715.939 569.761 718.387 576.907 728.554C577.374 729.218 578.617 730.812 580.147 732.582C580.866 733.414 581.514 734.127 582.019 734.653C582.21 734.853 582.345 734.986 582.424 735.064C587.104 738.818 593.459 742.412 596.834 743.402C607.928 746.657 622.694 747.492 637.5 747.492C649.926 747.492 660 757.566 660 769.992C660 782.418 649.926 792.492 637.5 792.492C622.254 792.492 601.907 791.787 584.166 786.582C572.894 783.275 561.055 775.696 553.775 769.772C550.887 767.422 547.917 764.107 546.109 762.016C544.031 759.613 541.739 756.773 540.092 754.43C532.947 744.264 535.395 730.231 545.561 723.085Z" fill="#0C1C6D"/>
<path d="M596 397.992C605.665 397.992 613.5 405.827 613.5 415.492C613.5 425.157 605.665 432.992 596 432.992C586.915 432.992 575.234 436.871 563.112 441.389C550.22 446.195 537.91 454.057 526.483 460.041C517.921 464.524 507.345 461.217 502.862 452.655C498.378 444.093 501.684 433.517 510.246 429.034C518.09 424.927 535.292 414.408 550.888 408.594C562.023 404.444 579.577 397.992 596 397.992Z" fill="#0C1C6D"/>
<path d="M844.5 430.492C850.394 437.442 847.644 445.284 840.694 451.178C833.743 457.071 823.331 456.215 817.438 449.265L844.5 430.492ZM752.843 387.197C774.731 384.014 796.717 394.733 810.103 402.912C814.368 405.518 820.374 409.386 826.193 413.607C831.696 417.6 840.117 425.322 844.5 430.492L817.438 449.265C815.8 447.333 812.065 444.129 806.814 440.318C801.877 436.737 796.633 433.354 792.898 431.071C780.22 423.325 766.804 418.322 757.199 419.915L756.779 419.98C747.946 421.215 739.691 415.186 738.223 406.337C736.732 397.347 742.811 388.85 751.801 387.359L752.843 387.197Z" fill="#0C1C6D"/>
</svg>
