<svg id="visual" viewBox="0 0 1920 20" width="1920" height="20" xmlns="http://www.w3.org/2000/svg" xmlns:xlink="http://www.w3.org/1999/xlink" version="1.1"><path d="M0 8L35.5 8C71 8 142 8 213.2 8.3C284.3 8.7 355.7 9.3 426.8 8.7C498 8 569 6 640 5.8C711 5.7 782 7.3 853.2 9.2C924.3 11 995.7 13 1066.8 11.7C1138 10.3 1209 5.7 1280 4C1351 2.3 1422 3.7 1493.2 5.8C1564.3 8 1635.7 11 1706.8 11.3C1778 11.7 1849 9.3 1884.5 8.2L1920 7L1920 0L1884.5 0C1849 0 1778 0 1706.8 0C1635.7 0 1564.3 0 1493.2 0C1422 0 1351 0 1280 0C1209 0 1138 0 1066.8 0C995.7 0 924.3 0 853.2 0C782 0 711 0 640 0C569 0 498 0 426.8 0C355.7 0 284.3 0 213.2 0C142 0 71 0 35.5 0L0 0Z" fill="#f8ebd8"></path></svg>